<?xml version="1.0" standalone="no"?>
<!DOCTYPE svg PUBLIC "-//W3C//DTD SVG 20010904//EN"
 "http://www.w3.org/TR/2001/REC-SVG-20010904/DTD/svg10.dtd">
<svg version="1.0" xmlns="http://www.w3.org/2000/svg"
 width="169.000000pt" height="169.000000pt" viewBox="0 0 169.000000 169.000000"
 preserveAspectRatio="xMidYMid meet">
<metadata>
Created by potrace 1.11, written by Peter Selinger 2001-2013
</metadata>
<g transform="translate(0.000000,169.000000) scale(0.100000,-0.100000)"
fill="#000000" stroke="none">
<path d="M3 1677 c-7 -12 4 -20 30 -24 12 -2 45 -10 74 -18 66 -19 116 -75
134 -148 14 -60 20 -1074 7 -1212 -10 -98 -39 -160 -93 -197 -34 -23 -122 -47
-147 -40 -5 1 -8 -5 -8 -13 0 -8 6 -16 13 -16 6 -1 180 -2 385 -3 348 -1 372
0 372 16 0 13 -8 18 -28 18 -82 0 -153 45 -190 120 l-27 55 -3 333 -4 333 69
-2 c190 -6 301 -76 343 -219 10 -36 21 -81 23 -100 2 -23 9 -36 20 -38 15 -3
17 10 18 115 0 65 1 233 2 373 2 213 0 255 -12 255 -8 0 -15 -9 -17 -20 -11
-78 -17 -105 -36 -145 -28 -61 -100 -126 -162 -146 -58 -20 -73 -22 -173 -31
l-73 -6 0 366 0 365 170 -3 c93 -2 195 -9 227 -15 159 -33 264 -127 323 -288
14 -38 28 -62 38 -62 16 0 16 -11 -4 255 -4 44 -9 96 -13 115 l-7 35 -623 0
c-342 0 -625 -4 -628 -8z"/>
<path d="M1557 1667 c-46 -70 -43 -126 29 -552 4 -25 23 -50 31 -41 1 1 5 20
8 42 3 21 10 64 15 94 5 30 11 71 14 90 3 19 7 44 10 55 25 123 25 252 1 293
-28 47 -83 57 -108 19z"/>
</g>
</svg>
